# xmcd
#
# Track frame offsets:
#	150
#	8510
#	25080
#	44085
#	55960
#	77930
#	94435
#	120835
#	136510
#	158755
#	178530
#	188710
#	200410
#
# Disc length: 2921 seconds
#
# Revision: 2
# Processed by: cddbd v1.5.2PL0 Copyright (c) Steve Scherf et al.
# Submitted via: audiograbber 1.83.01
#
DISCID=9e0b670d
DTITLE=Diverse - Starparade der Operette
DYEAR=1994
DGENRE=Classical
TTITLE0=Anneliese Rothenberger - Ich möcht wieder einmal die Heimat seh'n - Das
TTITLE0=Land des Lächelns
TTITLE1=Anneliese Rothenberger, Nicolai Gedda - Ich steh' zu dir - Casanova
TTITLE2=Margit Schramm - Klänge der Heimat - Die Fledermaus
TTITLE3=Hermann Prey - Her die Hand, es muß ja sein - Der Zigeunerbaron
TTITLE4=Fritz Wunderlich - Wolgalied - Der Zarewitsch
TTITLE5=Rudolf Schock - Gern hab' ich die Frau'n geküßt - Paganini
TTITLE6=Rudolf Schock - Zwei Märchenaugen - Die Zirkusprinzessin
TTITLE7=Rudolf Schock - Dein ist mein ganzes Herz - Das Land des Lächelns
TTITLE8=Rudolf Schock - Immer nur lächeln - Das Land des Lächelns
TTITLE9=Erika Köth, Robert Losfalvy - So kommen Sie! - Ich bin eine anständ'ge 
TTITLE9=Frau - Die lustige Witwe
TTITLE10=Hermann Prey - Dunkelrote Rosen - Gasparrone
TTITLE11=Brigitte Fassbaender - Ich lade gern mir Gäste ein - Die Fledermaus
TTITLE12=Heinz Hoppe - Wie mein Ahnl zwanzig Jahr' - Der Vogelhändler
EXTD=
EXTT0=Sopran
EXTT1=Sopran, Tenor
EXTT2=Sopran
EXTT3=Bariton
EXTT4=Tenor
EXTT5=Tenor
EXTT6=Tenor
EXTT7=Tenor
EXTT8=Tenor
EXTT9=Sopran, Tenor
EXTT10=Bariton
EXTT11=Mezzosopran
EXTT12=Tenor
PLAYORDER=
